<?xml version="1.0" encoding="utf-8"?>
<!-- Generator: Adobe Illustrator 16.0.0, SVG Export Plug-In . SVG Version: 6.00 Build 0)  -->
<!DOCTYPE svg PUBLIC "-//W3C//DTD SVG 1.1//EN" "http://www.w3.org/Graphics/SVG/1.1/DTD/svg11.dtd">
<svg version="1.1" id="Capa_1" xmlns="http://www.w3.org/2000/svg" xmlns:xlink="http://www.w3.org/1999/xlink" x="0px" y="0px"
	 width="100%" height="692px" viewBox="0 0 1600 692" enable-background="new 0 0 1600 692" xml:space="preserve">
<g>
	<defs>
		<path id="SVGID_1_" d="M1600,692V0.148c0,0-310.063-0.334-309.729,0c-13.693,39.625-20.988,80.42-22.164,122.3
			c-1.863,66.388,11.398,130.042,35.463,191.605c13.834,35.39,23.775,71.646,26.842,109.618c3.205,39.678-0.84,78.504-14.869,115.92
			c-24.047,64.133-67.291,116.922-125.225,152.408C1189.922,692.002,1600,692,1600,692z"/>
	</defs>
	<clipPath id="SVGID_2_">
		<use xlink:href="#SVGID_1_"  overflow="visible"/>
	</clipPath>
	<g transform="matrix(1 0 0 1 3.139551e-005 0)" clip-path="url(#SVGID_2_)">
		
			<image overflow="visible" width="410" height="692" xlink:href="../images/menu5.png"  transform="matrix(0.9999 0 0 0.9999 1190.0508 0)">
		</image>
	</g>
</g>
<g>
	<defs>
		<path id="SVGID_3_" d="M871.762,692V0.148c0,0,418.176-0.334,418.51,0c-13.693,39.625-20.988,80.42-22.164,122.3
			c-1.863,66.388,11.398,130.042,35.463,191.605c13.834,35.39,23.775,71.646,26.842,109.618c3.205,39.678-0.84,78.504-14.869,115.92
			c-24.047,64.133-67.291,116.922-125.225,152.408C1189.922,692.002,871.762,692,871.762,692z"/>
	</defs>
	<clipPath id="SVGID_4_">
		<use xlink:href="#SVGID_3_"  overflow="visible"/>
	</clipPath>
	<g transform="matrix(1 0 0 1 -1.311924e-005 0)" clip-path="url(#SVGID_4_)">
		
			<image overflow="visible" width="460" height="692" xlink:href="../images/menu4.png"  transform="matrix(0.9999 0 0 0.9999 871.5039 0)">
		</image>
	</g>
</g>
<g>
	<defs>
		<path id="SVGID_5_" d="M550.169,692V0.148c0,0,421.233-0.334,421.569,0c-13.695,39.625-20.99,80.42-22.164,122.3
			c-1.863,66.388,11.398,130.042,35.463,191.605c13.832,35.39,23.773,71.646,26.842,109.618c3.205,39.678-0.84,78.504-14.871,115.92
			C972.961,603.725,929.717,656.514,871.785,692C871.389,692.002,550.169,692,550.169,692z"/>
	</defs>
	<clipPath id="SVGID_6_">
		<use xlink:href="#SVGID_5_"  overflow="visible"/>
	</clipPath>
	<g transform="matrix(1 0 0 1 2.090702e-005 0)" clip-path="url(#SVGID_6_)">
		
			<image overflow="visible" width="463" height="692" xlink:href="../images/menu3.png"  transform="matrix(0.9999 0 0 0.9999 550.1689 0)">
		</image>
	</g>
</g>
<g>
	<defs>
		<path id="SVGID_7_" d="M228.649,692V0.148c0,0,421.818-0.334,422.152,0c-13.693,39.625-20.989,80.42-22.164,122.3
			c-1.863,66.388,11.398,130.042,35.463,191.605c13.833,35.39,23.775,71.646,26.842,109.618c3.205,39.678-0.84,78.504-14.871,115.92
			C652.024,603.725,608.781,656.514,550.849,692C550.452,692.002,228.649,692,228.649,692z"/>
	</defs>
	<clipPath id="SVGID_8_">
		<use xlink:href="#SVGID_7_"  overflow="visible"/>
	</clipPath>
	<g transform="matrix(1 0 0 1 9.321466e-007 0)" clip-path="url(#SVGID_8_)">
		
			<image overflow="visible" width="464" height="692" xlink:href="../images/menu2.png"  transform="matrix(0.9999 0 0 0.9999 228.0361 0)">
		</image>
	</g>
	<path clip-path="url(#SVGID_8_)" fill-rule="evenodd" clip-rule="evenodd" fill="#141414" d="M543.409,692.001
		c0.207-0.236-310.958-0.236-310.375,0c22.278-14.27,43.476-29.941,56.743-43.061c13.268-13.12,20.694-18.318,36.549-26.982
		c19.164-10.473,47.865-21.046,89.17-24.823c30.823-2.818,81.916-0.211,112.611,5.911c30.695,6.123,71.751,11.733,112.926,6.114
		C640.347,610.274,604.03,661.813,543.409,692.001z"/>
</g>
<g>
	<defs>
		<path id="SVGID_9_" d="M0,692V0.148c0,0,327.718-0.334,328.052,0c-13.693,39.625-20.989,80.42-22.164,122.3
			c-1.863,66.388,11.398,130.042,35.463,191.605c13.833,35.39,23.775,71.646,26.842,109.618c3.206,39.678-0.84,78.504-14.871,115.92
			C329.274,603.725,286.032,656.514,228.098,692C227.702,692.002,0,692,0,692z"/>
	</defs>
	<clipPath id="SVGID_10_">
		<use xlink:href="#SVGID_9_"  overflow="visible"/>
	</clipPath>
	<g clip-path="url(#SVGID_10_)">
		
			<image overflow="visible" width="370" height="692" xlink:href="../images/menu1.png"  transform="matrix(0.9999 0 0 0.9999 0 0)">
		</image>
	</g>
</g>
<path fill-rule="evenodd" clip-rule="evenodd" fill="#FFFFFF" d="M340.989,312.233c-25.392-64.962-36.88-126.995-35.121-189.646
	c1.164-41.494,8.529-82.14,21.891-120.807l0.615-1.723c-0.031,0-5.34,0.031-5.34,0c-13.693,39.625-20.989,80.51-22.164,122.39
	c-1.863,66.388,11.398,130.042,35.463,191.605c13.833,35.39,23.775,71.646,26.842,109.618c3.205,39.678-0.84,78.504-14.871,115.92
	C324.257,603.725,281.014,656.514,223.081,692c-0.133,0,9.354,0.074,9.354,0c55.398-35.908,96.997-87.834,120.551-150.652
	c13.682-36.484,18.645-75.107,15.174-118.078C365.313,388.047,356.427,351.727,340.989,312.233z"/>
<path fill-rule="evenodd" clip-rule="evenodd" fill="#FFFFFF" d="M663.125,312.233c-25.392-64.962-36.88-126.995-35.121-189.646
	c1.164-41.494,8.529-82.14,21.892-120.807l0.614-1.723c-0.031,0-5.34,0.031-5.34,0c-13.693,39.625-20.989,80.51-22.164,122.39
	c-1.863,66.388,11.398,130.042,35.463,191.605c13.833,35.39,23.775,71.646,26.842,109.618c3.206,39.678-0.84,78.504-14.87,115.92
	C646.394,603.725,603.149,656.514,545.217,692c-0.132,0,9.354,0.074,9.354,0c55.399-35.908,96.997-87.834,120.552-150.652
	c13.681-36.484,18.644-75.107,15.173-118.078C687.449,388.047,678.563,351.727,663.125,312.233z"/>
<path fill-rule="evenodd" clip-rule="evenodd" fill="#FFFFFF" d="M984.674,312.233c-25.391-64.962-36.879-126.995-35.121-189.646
	c1.164-41.494,8.529-82.14,21.893-120.807l0.613-1.723c-0.031,0-5.34,0.031-5.34,0c-13.693,39.625-20.988,80.51-22.164,122.39
	c-1.863,66.388,11.398,130.042,35.463,191.605c13.834,35.39,23.775,71.646,26.842,109.618c3.207,39.678-0.84,78.504-14.869,115.92
	C967.943,603.725,924.699,656.514,866.766,692c-0.131,0,9.354,0.074,9.354,0c55.4-35.908,96.998-87.834,120.553-150.652
	c13.68-36.484,18.643-75.107,15.172-118.078C1008.998,388.047,1000.111,351.727,984.674,312.233z"/>
<path fill-rule="evenodd" clip-rule="evenodd" fill="#FFFFFF" d="M1303.209,312.233c-25.393-64.962-36.881-126.995-35.121-189.646
	c1.164-41.494,8.529-82.14,21.891-120.807l0.615-1.723c-0.031,0-5.34,0.031-5.34,0c-13.693,39.625-20.99,80.51-22.164,122.39
	c-1.863,66.388,11.398,130.042,35.463,191.605c13.832,35.39,23.775,71.646,26.842,109.618c3.205,39.678-0.84,78.504-14.871,115.92
	c-24.047,64.133-67.291,116.922-125.223,152.408c-0.133,0,9.354,0.074,9.354,0c55.398-35.908,96.996-87.834,120.551-150.652
	c13.682-36.484,18.645-75.107,15.174-118.078C1327.533,388.047,1318.646,351.727,1303.209,312.233z"/>
</svg>
